<?xml version="1.0" encoding="utf-8"?><svg viewBox="0 0 37 21" xmlns="http://www.w3.org/2000/svg" xmlns:xlink="http://www.w3.org/1999/xlink"><style>:root>svg{display:none}:root>svg:target{display:block}</style><svg viewBox="0 0 37 21" id="vk" xmlns="http://www.w3.org/2000/svg"><path fill-rule="evenodd" clip-rule="evenodd" d="M36.151 1.422C36.407.603 36.151 0 34.926 0h-4.047c-1.03 0-1.505.52-1.762 1.095 0 0-2.058 4.794-4.974 7.908-.943.903-1.372 1.19-1.886 1.19-.258 0-.645-.287-.645-1.107V1.421c0-.984-.284-1.422-1.14-1.422h-6.365c-.642 0-1.03.456-1.03.89 0 .931 1.46 1.147 1.609 3.769v5.697c0 1.25-.236 1.476-.751 1.476-1.372 0-4.71-4.817-6.69-10.328C6.86.433 6.471 0 5.436 0h-4.05C.231 0 0 .52 0 1.095 0 2.118 1.372 7.2 6.39 13.921 9.735 18.511 14.445 21 18.735 21c2.573 0 2.891-.552 2.891-1.505v-3.469c0-1.105.244-1.326 1.06-1.326.6 0 1.629.288 4.03 2.5 2.745 2.624 3.196 3.8 4.741 3.8h4.047c1.156 0 1.736-.552 1.403-1.644-.367-1.086-1.678-2.663-3.415-4.533-.944-1.065-2.359-2.213-2.789-2.787-.6-.736-.428-1.065 0-1.72 0 0 4.933-6.64 5.447-8.894h.001z"/></svg></svg>